# xmcd
#
# Track frame offsets: 
#        150
#        12676
#        26464
#        39169
#        52976
#        64140
#        75833
#        87906
#        101513
#        114211
#        128106
#        140576
#
# Disc length: 2021 seconds
#
# Revision: 0
# Processed by: cddbd v1.5.2PL0 Copyright (c) Steve Scherf et al.
# Submitted via: ExactAudioCopy v0.99pb4
#
DISCID=8c07e30c
DTITLE=Conway Twitty - Hello Darlin'
DYEAR=1980
DGENRE=Classic Country
TTITLE0=Rocky Top
TTITLE1=I'll Get Over Losing You
TTITLE2=Up Comes the Bottle
TTITLE3=You and Your Sweet Love
TTITLE4=Hello Darlin'
TTITLE5=Rose
TTITLE6=Rueben James
TTITLE7=I Never Once Stopped Loving You
TTITLE8=Will You Visit Me On Sunday
TTITLE9=Blue Eyes Crying in the Rain
TTITLE10=I'm So Used to Loving You
TTITLE11=Hello Darlin'
EXTD=
EXTT0=
EXTT1=
EXTT2=
EXTT3=
EXTT4=
EXTT5=
EXTT6=
EXTT7=
EXTT8=
EXTT9=
EXTT10=
EXTT11=
PLAYORDER=
